<?xml version="1.0" encoding="UTF-8"?>
<!DOCTYPE svg PUBLIC "-//W3C//DTD SVG 1.1//EN" "http://www.w3.org/Graphics/SVG/1.1/DTD/svg11.dtd">
<!-- Creator: CorelDRAW X6 -->
<svg xmlns="http://www.w3.org/2000/svg" xml:space="preserve" width="13.8889in" height="13.8889in" version="1.1" style="shape-rendering:geometricPrecision; text-rendering:geometricPrecision; image-rendering:optimizeQuality; fill-rule:evenodd; clip-rule:evenodd"
viewBox="0 0 13889 13889"
 xmlns:xlink="http://www.w3.org/1999/xlink">
 <defs>
  <style type="text/css">
   <![CDATA[
    .fil11 {fill:#37A84A;fill-rule:nonzero}
    .fil13 {fill:#37B34A;fill-rule:nonzero}
    .fil0 {fill:#409B92;fill-rule:nonzero}
    .fil10 {fill:#8CD196;fill-rule:nonzero}
    .fil5 {fill:#BC8E5C;fill-rule:nonzero}
    .fil1 {fill:#C69866;fill-rule:nonzero}
    .fil2 {fill:#D3A56C;fill-rule:nonzero}
    .fil4 {fill:#DDAB6F;fill-rule:nonzero}
    .fil3 {fill:#E8B674;fill-rule:nonzero}
    .fil6 {fill:#F4D9BD;fill-rule:nonzero}
    .fil7 {fill:white;fill-rule:nonzero}
    .fil8 {fill:#7C7C7D;fill-rule:nonzero}
    .fil9 {fill:#ACACAC;fill-rule:nonzero}
    .fil12 {fill:#ECECEC;fill-rule:nonzero}
   ]]>
  </style>
 </defs>
 <g id="Layer_x0020_1">
  <metadata id="CorelCorpID_0Corel-Layer"/>
  <polygon class="fil0" points="0,13889 13889,13889 13889,0 0,0 "/>
  <polygon class="fil1" points="10024,13875 11587,13875 11587,8426 10024,8426 "/>
  <polygon class="fil2" points="10159,7694 10159,8576 3286,8576 1812,9305 10197,9305 11671,8576 11671,7694 "/>
  <path class="fil3" d="M10024 13875l0 -5449 -8122 0 0 5451c29,-1 8122,-2 8122,-2z"/>
  <polygon class="fil4" points="1765,9313 10190,9313 10190,8423 1765,8423 "/>
  <polygon class="fil3" points="10197,8423 1812,8423 3286,7694 11671,7694 "/>
  <polygon class="fil5" points="8657,8112 4593,8112 4790,8005 8889,8005 "/>
  <path class="fil6" d="M12288 4273c-262,-444 -1872,-968 -2874,-1762 -208,-165 -582,-772 -904,-559 -310,190 81,459 253,581 159,107 293,216 413,333 -225,-172 -455,-336 -704,-446 -240,-113 -924,-286 -1060,76 -140,336 334,325 545,323 55,-2 108,-2 159,-1 -36,1 -73,3 -109,6 -328,18 -1175,233 -1110,708 46,448 556,157 785,31 75,-44 148,-84 220,-120 -107,104 -207,216 -329,322 -622,543 -503,1188 -149,1066 693,-240 423,-1204 1699,-952 377,74 1765,426 1365,1249 -248,511 -1134,675 -1228,1214 -118,672 1013,-37 1234,-291 363,-355 714,-361 1073,-190l757 -1558c-12,-10 -24,-19 -37,-29z"/>
  <path class="fil7" d="M11568 5860l-135 278c-25,51 -10,109 33,130l324 158 159 -328c-129,-96 -256,-178 -382,-237z"/>
  <path class="fil7" d="M12837 4272l-324 -158c-43,-21 -98,3 -123,54l-65 134c126,101 243,203 349,305l163 -335z"/>
  <path class="fil7" d="M12674 4607c-106,-102 -223,-204 -349,-305l-757 1558c126,60 253,142 382,237l724 -1490z"/>
  <path class="fil8" d="M13889 4593l-936 -455c-23,-11 -55,10 -73,47l-42 87 198 96c43,21 58,79 33,130l-957 1969c-25,51 -80,75 -123,54l-198 -96 -16 33c-18,37 -14,76 8,87l2106 1024 0 -2976zm-1267 1754c-46,95 -160,134 -255,88 -95,-46 -134,-160 -88,-255 46,-95 160,-134 255,-88 95,46 134,160 88,255z"/>
  <path class="fil8" d="M12112 6468l957 -1969c25,-51 10,-109 -33,-130l-198 -96 -163 335c3,3 6,6 9,9l-723 1488c-3,-3 -7,-5 -10,-8l-159 328 198 96c43,21 98,-3 123,-54z"/>
  <path class="fil8" d="M11960 6105l723 -1488c-3,-3 -6,-6 -9,-9l-724 1490c3,3 7,5 10,8z"/>
  <path class="fil9" d="M12534 6092c-95,-46 -209,-7 -255,88 -46,95 -7,209 88,255 95,46 209,7 255,-88 46,-95 7,-209 -88,-255z"/>
  <polygon class="fil10" points="7360,8088 9530,5857 7998,4367 5328,7111 6332,8088 "/>
  <path class="fil11" d="M6332 8088l1028 0 1761 -1810c-99,-288 -126,-597 -80,-897l-663 -645c-270,100 -560,136 -844,107l-1808 1859c41,253 30,515 -33,764l639 622z"/>
  <path class="fil12" d="M6831 7099c-339,-330 -347,-873 -17,-1212 330,-339 873,-347 1212,-17 339,330 347,873 17,1212 -330,339 -873,347 -1212,17z"/>
  <path class="fil13" d="M6978 6569c11,10 59,55 139,74 44,10 97,12 154,-5 31,-9 62,-23 95,-44l318 329c-57,38 -98,50 -125,51 -21,1 -34,-3 -42,-7 -4,-2 -7,-4 -10,-5 -2,-2 -3,-2 -3,-2 -17,-18 -45,-20 -64,-4 0,0 -21,45 -4,64l0 0c0,1 1,2 3,3 11,12 54,47 126,42 50,-3 111,-24 184,-76l67 69c18,18 47,19 65,1 18,-18 19,-46 1,-65l-61 -63c10,-9 20,-18 30,-28 5,-5 10,-10 14,-14l61 63c18,18 46,19 65,1 18,-18 19,-46 1,-65l-68 -70c54,-80 67,-156 57,-220 -13,-86 -61,-143 -85,-167 -7,-7 -12,-11 -13,-13 -10,-10 -63,-55 -146,-76 -45,-11 -100,-14 -160,3 -26,7 -52,18 -79,33l-302 -312c56,-31 101,-35 136,-31 55,7 94,41 108,55 2,2 4,4 4,5 0,0 0,1 1,1 16,20 44,23 64,8 20,-16 23,-44 8,-64 -1,-1 -5,-6 -11,-13 -22,-22 -76,-71 -162,-82 -61,-9 -134,5 -214,54l-87 -90c-18,-18 -46,-19 -64,-1 -18,18 -19,46 -1,65l79 81c-9,8 -18,16 -27,25 -1,1 -2,1 -2,2 -5,5 -10,10 -15,15l-78 -81c-18,-18 -46,-19 -65,-1 -18,18 -19,46 -1,65l85 88c-57,82 -73,159 -66,223 10,87 58,143 80,167 5,5 9,9 11,11zm808 270c-10,10 -20,19 -30,28l-318 -328c5,-5 10,-9 15,-14 10,-10 21,-19 31,-27l316 326c-5,5 -9,10 -14,14zm-186 -405c64,-18 118,-5 158,13 20,9 36,19 47,27 5,4 9,7 12,9 1,1 2,2 3,2 0,0 0,0 0,0l0 0 1 1 1 1 0 0c1,1 3,3 7,7 16,17 52,61 60,117 5,38 1,84 -32,139l-294 -304c13,-6 25,-10 37,-14zm-508 -289c9,-9 18,-17 27,-24l301 311c-10,9 -20,18 -30,27 -5,5 -10,9 -15,14l-300 -310c5,-6 11,-12 17,-18zm-114 236c-4,-38 2,-87 40,-146l283 292c-20,11 -38,19 -55,24 -62,18 -112,6 -148,-11 -18,-9 -33,-18 -42,-26 -5,-4 -8,-7 -11,-9 -1,-1 -2,-2 -2,-2l0 0 -2 -2 -2 -1c0,0 -3,-2 -6,-6 -15,-15 -49,-57 -55,-113z"/>
 </g>
</svg>
