<?xml version="1.0" encoding="utf-8"?>
<!-- Generator: Adobe Illustrator 21.0.0, SVG Export Plug-In . SVG Version: 6.00 Build 0)  -->
<svg version="1.1" id="Layer_1" xmlns="http://www.w3.org/2000/svg" xmlns:xlink="http://www.w3.org/1999/xlink" x="0px" y="0px"
	 viewBox="0 0 496 496" style="enable-background:new 0 0 496 496;" xml:space="preserve">
<style type="text/css">
	.st0{fill:#40926A;}
</style>
<g>
	<path class="st0" d="M424,176h-27.3L359,108.1c-1.1-2-3-3.4-5.2-3.9c-2.2-0.5-4.5-0.1-6.4,1.2l-8.7,6l-37.1-37.1
		c-1.8-1.9-4.5-2.7-7.1-2.2c-2.6,0.5-4.8,2.2-5.9,4.5L248,164.9l-40.7-88.3c-1.1-2.4-3.3-4.1-5.9-4.5c-2.6-0.5-5.2,0.4-7.1,2.2
		l-37.1,37.1l-8.7-6c-1.9-1.3-4.2-1.7-6.4-1.2c-2.2,0.5-4.1,1.9-5.2,3.9L99.3,176H72c-4.4,0-8,3.6-8,8v64c0,4.4,3.6,8,8,8h8v232
		c0,4.4,3.6,8,8,8h320c4.4,0,8-3.6,8-8V256l8,0c4.4,0,8-3.6,8-8v-64C432,179.6,428.4,176,424,176z M349.3,123.6l29.1,52.4H273.6
		L349.3,123.6z M224,192h48v97.7l-19.8-12.2c-1.3-0.8-2.7-1.2-4.2-1.2s-2.9,0.4-4.2,1.2L224,289.7V192z M298.5,93.8l26.9,26.9
		l-57.8,40L298.5,93.8z M197.5,93.8l30.9,67l-57.8-40L197.5,93.8z M146.7,123.6l75.7,52.4H117.6L146.7,123.6z M80,192h128v48H80V192
		z M96,480v-16h304v16H96z M400,448H96V256h112v48c0,2.9,1.6,5.6,4.1,7c2.5,1.4,5.6,1.3,8.1-0.2l27.8-17.1l27.8,17.1
		c1.3,0.8,2.7,1.2,4.2,1.2c1.3,0,2.7-0.3,3.9-1c2.5-1.4,4.1-4.1,4.1-7v-47.5l112-0.4V448z M416,240l-128,0.5V192h128V240z"/>
	<path class="st0" d="M236.7,72c2.1,2.1,3.3,5,3.3,8v8h16v-8c0-7.3-2.8-14.2-8-19.3l-4.7-4.7c-2.1-2.1-3.3-5-3.3-8s1.2-5.9,3.3-8
		l4.7-4.7c5.2-5.2,8-12,8-19.3V0h-16v16c0,3-1.2,5.9-3.3,8l-4.7,4.7c-5.2,5.2-8,12-8,19.3s2.8,14.2,8,19.3L236.7,72z"/>
	<path class="st0" d="M176,40h32v16h-32V40z"/>
	<path class="st0" d="M272,24h32v16h-32V24z"/>
	<path class="st0" d="M477.7,45.7l-11.3-11.3L456,44.7c-2.1,2.1-5,3.3-8,3.3c-7.3,0-14.2,2.8-19.3,8l-4.7,4.7c-5.2,5.2-8,12-8,19.3
		c0,3-1.2,5.9-3.3,8l-10.3,10.3l11.3,11.3L424,99.3c5.2-5.2,8-12,8-19.3c0-3,1.2-5.9,3.3-8l4.7-4.7c2.1-2.1,5-3.3,8-3.3
		c7.3,0,14.2-2.8,19.3-8L477.7,45.7z"/>
	<path class="st0" d="M60.7,72c2.1,2.1,3.3,5,3.3,8c0,7.3,2.8,14.2,8,19.3l10.3,10.3l11.3-11.3L83.3,88c-2.1-2.1-3.3-5-3.3-8
		c0-7.3-2.8-14.2-8-19.3L67.3,56c-5.2-5.2-12-8-19.3-8c-3,0-5.9-1.2-8-3.3L29.7,34.3L18.3,45.7L28.7,56c5.2,5.2,12,8,19.3,8
		c3,0,5.9,1.2,8,3.3L60.7,72z"/>
	<path class="st0" d="M352,67.3c5.2-5.2,8-12,8-19.3c0-3,1.2-5.9,3.3-8l4.7-4.7c2.1-2.1,5-3.3,8-3.3c7.3,0,14.2-2.8,19.3-8
		l10.3-10.3L394.3,2.3L384,12.7c-2.1,2.1-5,3.3-8,3.3c-7.3,0-14.2,2.8-19.3,8l-4.7,4.7c-5.2,5.2-8,12-8,19.3c0,3-1.2,5.9-3.3,8
		l-10.3,10.3l11.3,11.3L352,67.3z"/>
	<path class="st0" d="M112,32c3,0,5.9,1.2,8,3.3l4.7,4.7c2.1,2.1,3.3,5,3.3,8c0,7.3,2.8,14.2,8,19.3l10.3,10.3l11.3-11.3L147.3,56
		c-2.1-2.1-3.3-5-3.3-8c0-7.3-2.8-14.2-8-19.3l-4.7-4.7c-5.2-5.2-12-8-19.3-8c-3,0-5.9-1.2-8-3.3L93.7,2.3L82.3,13.7L92.7,24
		C97.8,29.2,104.7,32,112,32z"/>
	<path class="st0" d="M408,128h32v16h-32V128z"/>
	<path class="st0" d="M56,128h32v16H56V128z"/>
	<path class="st0" d="M8,80h32v16H8V80z"/>
	<path class="st0" d="M456,80h32v16h-32V80z"/>
</g>
</svg>
