<?xml version="1.0" encoding="utf-8"?>
<!-- Generator: Adobe Illustrator 21.0.0, SVG Export Plug-In . SVG Version: 6.00 Build 0)  -->
<svg version="1.1" id="Layer_1" xmlns="http://www.w3.org/2000/svg" xmlns:xlink="http://www.w3.org/1999/xlink" x="0px" y="0px"
	 viewBox="0 0 512 512" style="enable-background:new 0 0 512 512;" xml:space="preserve">
<style type="text/css">
	.st0{fill:#40926A;}
</style>
<path class="st0" d="M313.9,228.8c0-32-26-58-58-58s-58,26-58,58c0,32,26,58,58,58S313.9,260.7,313.9,228.8z M255.9,266.8
	c-21,0-38-17-38-38s17-38,38-38s38,17,38,38S276.8,266.8,255.9,266.8z"/>
<g>
	<path class="st0" d="M350.1,175.1c-0.4-0.5-0.8-1-1.2-1.4c-11.4-62.9-40.3-121.6-84.3-169.4c-1.9-2.6-4.9-4.2-8.2-4.2h-0.1
		c-3.3,0-6.3,1.6-8.2,4.2c-43.9,47.8-72.9,106.4-84.3,169.3c-0.5,0.5-0.9,1-1.3,1.5L56,329.2c-1.2,1.7-1.8,3.7-1.8,5.7v15.1
		c0,5.5,4.5,10,10,10h53.2v65.2c0,5.5,4.5,10,10,10s10-4.5,10-10v-65.2h25.2l20.1,35.2c1.8,3.1,5.1,5,8.7,5h21.4
		c-8.7,10.1-14,23.3-14,37.6c0,0.6,0,1.1,0,1.6c0.6,28.5,16.2,53.3,29.2,69c1.8,2.2,4.4,3.5,7.2,3.6c0.2,0,0.3,0,0.5,0
		c2.6,0,5.2-1.1,7.1-2.9l13.7-13.7L270,509c2,2,4.7,3,7.5,2.9c2.8-0.1,5.4-1.4,7.2-3.6c13-15.8,28.7-40.5,29.2-68.9
		c0-0.6,0-1.1,0-1.7c0-14.4-5.3-27.5-14-37.6h21.5c3.6,0,6.9-1.9,8.7-5.1l20-35.2h24.2v65.2c0,5.5,4.5,10,10,10s10-4.5,10-10v-65.2
		h54c5.5,0,10-4.5,10-10v-15.1c0-2-0.6-4-1.8-5.7L350.1,175.1z M178.4,234.5c0-43.3,8.7-85.5,25.1-124.5h105.7
		c9.6,22.8,16.5,46.6,20.7,71.1c0,0.3,0.1,0.6,0.2,0.9c2.8,17.2,4.3,34.8,4.3,52.5v105.4h-156V234.5z M256.4,25.1
		C273.6,45,288.2,66.8,300,90h-87.2C224.5,66.8,239.1,45,256.4,25.1z M74.2,338l84.7-122.5c-0.3,6.3-0.5,12.7-0.5,19v105.4H74.2V338
		z M294,437.8c0,0.4,0,0.7,0,1.2c-0.4,18.2-8.9,35-17.9,47.8l-12.6-12.6c-3.9-3.9-10.2-3.9-14.1,0l-12.7,12.7
		c-9-12.8-17.5-29.7-17.9-48c0-0.4,0-0.7,0-1.1c0-20.8,16.9-37.6,37.6-37.6S294,417,294,437.8z M315.6,380.1H197.2l-11.6-20.2h141.6
		L315.6,380.1z M438.4,339.9h-84V234.5c0-6.3-0.2-12.6-0.5-18.9l84.5,122.4V339.9z"/>
	<path class="st0" d="M432.4,399.1c-5.5,0-10,4.5-10,10V502c0,5.5,4.5,10,10,10s10-4.5,10-10v-92.9
		C442.4,403.6,437.9,399.1,432.4,399.1z"/>
	<path class="st0" d="M384.4,455.2c-2.6,0-5.2,1.1-7.1,2.9s-2.9,4.4-2.9,7.1c0,2.6,1.1,5.2,2.9,7.1s4.4,2.9,7.1,2.9s5.2-1.1,7.1-2.9
		s2.9-4.4,2.9-7.1c0-2.6-1.1-5.2-2.9-7.1S387,455.2,384.4,455.2z"/>
	<path class="st0" d="M79.4,399.1c-5.5,0-10,4.5-10,10V502c0,5.5,4.5,10,10,10s10-4.5,10-10v-92.9C89.4,403.6,84.9,399.1,79.4,399.1
		z"/>
	<path class="st0" d="M127.4,455.2c-2.6,0-5.2,1.1-7.1,2.9c-1.9,1.9-2.9,4.4-2.9,7.1c0,2.6,1.1,5.2,2.9,7.1c1.9,1.9,4.4,2.9,7.1,2.9
		s5.2-1.1,7.1-2.9c1.9-1.9,2.9-4.4,2.9-7.1c0-2.6-1.1-5.2-2.9-7.1S130,455.2,127.4,455.2z"/>
	<path class="st0" d="M431.8,44.5c5.5,0,10-4.5,10-10V20.1c0-5.5-4.5-10-10-10s-10,4.5-10,10v14.5C421.8,40,426.3,44.5,431.8,44.5z"
		/>
	<path class="st0" d="M472.5,49.6h-16.4c-5.5,0-10,4.5-10,10c0,5.5,4.5,10,10,10h16.4c5.5,0,10-4.5,10-10
		C482.5,54,478,49.6,472.5,49.6z"/>
	<path class="st0" d="M391.7,69.6h15.3c5.5,0,10-4.5,10-10c0-5.5-4.5-10-10-10h-15.3c-5.5,0-10,4.5-10,10
		C381.7,65.1,386.2,69.6,391.7,69.6z"/>
	<path class="st0" d="M431.8,109.1c5.5,0,10-4.5,10-10V87.4c0-5.5-4.5-10-10-10s-10,4.5-10,10v11.6
		C421.8,104.6,426.3,109.1,431.8,109.1z"/>
	<path class="st0" d="M79.1,117.9c5.5,0,10-4.5,10-10V93.5c0-5.5-4.5-10-10-10s-10,4.5-10,10v14.5C69.1,113.5,73.6,117.9,79.1,117.9
		z"/>
	<path class="st0" d="M103.4,143h16.4c5.5,0,10-4.5,10-10s-4.5-10-10-10h-16.4c-5.5,0-10,4.5-10,10S97.9,143,103.4,143z"/>
	<path class="st0" d="M64.3,133c0-5.5-4.5-10-10-10H39c-5.5,0-10,4.5-10,10s4.5,10,10,10h15.3C59.8,143,64.3,138.5,64.3,133z"/>
	<path class="st0" d="M79.1,182.5c5.5,0,10-4.5,10-10v-11.6c0-5.5-4.5-10-10-10s-10,4.5-10,10v11.6C69.1,178,73.6,182.5,79.1,182.5z
		"/>
</g>
</svg>
